<svg style="position: absolute; width: 0; height: 0; overflow: hidden;" version="1.1" xmlns="http://www.w3.org/2000/svg">
    <symbol id='plus' viewBox="0 0 20.847 20.847">
        <g id="Group_835" dataName="Group 835" transform="translate(1 1)">
            <line id="Line_80" dataName="Line 80" x1="18.847" transform="translate(0 9.423)" fill="none" stroke="#000" stroke-linecap="round" stroke-miterlimit="10" stroke-width="2"/>
            <line id="Line_81" dataName="Line 81" x1="18.847" transform="translate(9.423) rotate(90)" fill="none" stroke="#000" stroke-linecap="round" stroke-miterlimit="10" stroke-width="2"/>
        </g>
    </symbol>
    <symbol id='clock' viewBox="0 0 22.989 22.989">
        <path id="Path_412" dataName="Path 412" d="M4.326,11.25a.856.856,0,0,1,.851-.862h5.205v-5.2h0a.865.865,0,1,1,1.73,0v6.056a.865.865,0,0,1-.865.865H5.176a.856.856,0,0,1-.85-.862m-2.6-.005a9.516,9.516,0,1,0,9.516-9.518,9.517,9.517,0,0,0-9.516,9.518M0,11.245A11.245,11.245,0,1,1,11.244,22.489,11.244,11.244,0,0,1,0,11.245" transform="translate(0.25 0.25)" stroke="#fff" stroke-width="0.5"/>
    </symbol>
    <symbol id='play' viewBox="0 0 29 29">
        <g id="Group_845" dataName="Group 845" transform="translate(-0.456 -0.456)">
            <circle id="Ellipse_211" dataName="Ellipse 211" cx="14.5" cy="14.5" r="14.5" transform="translate(0.456 0.456)"/>
            <path id="play-button_3_" dataName="play-button(3)" d="M14.689,6.065,5.971.053A.3.3,0,0,0,5.5.3V12.324a.3.3,0,0,0,.471.247L14.689,6.56a.3.3,0,0,0,0-.495Z" transform="translate(6.465 8.547)" fill="#fff"/>
        </g>
    </symbol>
    <symbol id='event' viewBox="0 0 22.899 23.754">
        <path id="Path_413" dataName="Path 413" d="M9.835,2.577q.073,0,.146,0h1.832V1a1.112,1.112,0,0,1,1.231-1h1.689a.986.986,0,0,1,1.088,1V2.576h6.869V1a.986.986,0,0,1,1.088-1h1.689a1.112,1.112,0,0,1,1.231,1V2.576h1.832A2.118,2.118,0,0,1,30.7,4.634q0,.073,0,.146V21.321a2.329,2.329,0,0,1-2.175,2.433H9.981a2.329,2.329,0,0,1-2.175-2.433V4.779A2.118,2.118,0,0,1,9.835,2.577Zm4.9-1.432H12.957V4.293h1.774Zm10.732,0H23.832V4.293h1.631ZM8.95,21.321a1.189,1.189,0,0,0,1.03,1.288H28.526a1.189,1.189,0,0,0,1.03-1.288V9.158H8.95V21.321Zm0-16.542V8.013H29.556V4.779a.973.973,0,0,0-1.03-1.059H26.694v.63a1.178,1.178,0,0,1-1.231,1.088H23.775a1.059,1.059,0,0,1-1.088-1.03q0-.029,0-.058v-.63H15.819v.63a1.059,1.059,0,0,1-1.03,1.088H13.043A1.178,1.178,0,0,1,11.812,4.35v-.63H9.981A.973.973,0,0,0,8.95,4.779Z" transform="translate(-7.804)"/>
    </symbol>
    <symbol id='facebook' viewBox="0 0 28.111 28.111">
        <path id="facebook-square-brands" d="M25.1,32H3.012A3.012,3.012,0,0,0,0,35.012V57.1a3.012,3.012,0,0,0,3.012,3.012h8.612V50.554H7.671v-4.5h3.953V42.627c0-3.9,2.322-6.054,5.878-6.054a23.949,23.949,0,0,1,3.484.3V40.7H19.023a2.249,2.249,0,0,0-2.536,2.43v2.921H20.8l-.69,4.5H16.487v9.557H25.1A3.012,3.012,0,0,0,28.111,57.1V35.012A3.012,3.012,0,0,0,25.1,32Z" transform="translate(0 -32)"/>
    </symbol>
    <symbol id='twitter' viewBox="0 0 32.141 26.104">
        <path id="twitter-brands" d="M28.837,54.588c.02.285.02.571.02.857,0,8.708-6.628,18.742-18.742,18.742A18.615,18.615,0,0,1,0,71.229a13.627,13.627,0,0,0,1.591.082A13.192,13.192,0,0,0,9.769,68.5,6.6,6.6,0,0,1,3.61,63.928a8.308,8.308,0,0,0,1.244.1,6.967,6.967,0,0,0,1.733-.224,6.588,6.588,0,0,1-5.282-6.465v-.082a6.634,6.634,0,0,0,2.977.836,6.6,6.6,0,0,1-2.039-8.81,18.724,18.724,0,0,0,13.582,6.893,7.436,7.436,0,0,1-.163-1.509,6.593,6.593,0,0,1,11.4-4.507,12.969,12.969,0,0,0,4.181-1.591,6.569,6.569,0,0,1-2.9,3.63,13.205,13.205,0,0,0,3.793-1.02,14.16,14.16,0,0,1-3.3,3.406Z" transform="translate(0 -48.082)"/>
    </symbol>
    <symbol id='instagram' viewBox="0 0 28.111 28.111">
        <path id="instagram-brands_1_" dataName="instagram-brands(1)" d="M13.984,38.673a7.207,7.207,0,1,0,7.206,7.207A7.2,7.2,0,0,0,13.984,38.673Zm0,11.893a4.686,4.686,0,1,1,4.685-4.686,4.694,4.694,0,0,1-4.685,4.686Zm9.181-12.188A1.681,1.681,0,1,1,21.484,36.7,1.677,1.677,0,0,1,23.165,38.378Zm4.772,1.706a8.32,8.32,0,0,0-2.27-5.89,8.371,8.371,0,0,0-5.889-2.271c-2.32-.132-9.275-.132-11.6,0a8.359,8.359,0,0,0-5.889,2.264,8.348,8.348,0,0,0-2.27,5.89c-.132,2.321-.132,9.277,0,11.6a8.32,8.32,0,0,0,2.27,5.89,8.382,8.382,0,0,0,5.889,2.271c2.32.132,9.275.132,11.6,0a8.316,8.316,0,0,0,5.889-2.271,8.375,8.375,0,0,0,2.27-5.89C28.069,49.356,28.069,42.406,27.938,40.085Zm-3,14.082a4.743,4.743,0,0,1-2.672,2.672c-1.85.734-6.24.565-8.284.565s-6.441.163-8.284-.565a4.743,4.743,0,0,1-2.672-2.672c-.734-1.85-.564-6.241-.564-8.286s-.163-6.442.564-8.286A4.743,4.743,0,0,1,5.7,34.922c1.85-.734,6.24-.565,8.284-.565s6.441-.163,8.284.565a4.743,4.743,0,0,1,2.672,2.672c.734,1.85.564,6.241.564,8.286S25.674,52.323,24.94,54.167Z" transform="translate(0.075 -31.825)"/>
    </symbol>
    <symbol id='check' viewBox="0 0 27 27">
        <g id="Group_330" dataName="Group 330" transform="translate(-1509 -4541)">
            <circle id="Ellipse_194" dataName="Ellipse 194" cx="13.5" cy="13.5" r="13.5" transform="translate(1509 4541)" fill="#29d089"/>
            <path id="Path_410" dataName="Path 410" d="M4.633,62.32,1.158,58.845,0,60l4.633,4.633,9.929-9.929L13.4,53.55Z" transform="translate(1515 4495.45)" fill="#fff" stroke="#fff" stroke-width="1"/>
        </g>
    </symbol>
    <symbol id='arrow' viewBox="0 0 12.087 22.173">
        <path id="Path_489" dataName="Path 489" d="M-13023.766-9424.152l9.672,9.672-9.672,9.673" transform="translate(13025.18 9425.566)" fill="none" stroke-linecap="round" stroke-linejoin="round" stroke-width="2"/>
    </symbol>
    <symbol id='more' viewBox="0 0 19.109 15.971">
        <g id="Group_823" dataName="Group 823" transform="translate(1 1)">
            <path id="Path_595" dataName="Path 595" d="M-8933.3-15746.281h-9.9" transform="translate(8943.205 15746.281)" fill="none" stroke="#fff" stroke-linecap="round" stroke-width="2"/>
            <path id="Path_596" dataName="Path 596" d="M-8935.294-15736.5h-16.967" transform="translate(8952.403 15743.425)" fill="none" stroke="#fff" stroke-linecap="round" stroke-width="2"/>
            <path id="Path_597" dataName="Path 597" d="M-8939.456-15726.041h-12.806" transform="translate(8952.616 15740.012)" fill="none" stroke="#fff" stroke-linecap="round" stroke-width="2"/>
        </g>
    </symbol>
    <symbol id='line' viewBox="0 0 568 22">
        <g id="Group_341" dataName="Group 341" opacity="0.2">
            <g id="Ellipse_195" dataName="Ellipse 195" fill="none" stroke="#000" stroke-linecap="round" stroke-width="3">
                <circle cx="11" cy="11" r="11" stroke="none"/>
                <circle cx="11" cy="11" r="9.5" fill="none"/>
            </g>
            <path id="Path_468" dataName="Path 468" d="M21202.721,13651.672h-526.744" transform="translate(-20655.361 -13640.172)" fill="none" stroke="#000" stroke-linecap="round" stroke-width="3" stroke-dasharray="16"/>
            <g id="Ellipse_197" dataName="Ellipse 197" transform="translate(546)" stroke="#000" stroke-linecap="round" stroke-width="3">
                <circle cx="11" cy="11" r="11" stroke="none"/>
                <circle cx="11" cy="11" r="9.5" fill="none"/>
            </g>
        </g>
    </symbol>
    <symbol id='logo' viewBox="0 0 164.73 69.995">
        <path id="PF-Logo-03" d="M320.411,439.211a9.494,9.494,0,0,0-2.954-6.917,7.9,7.9,0,0,1-2.3-7.12,10.138,10.138,0,0,0-.074-3.732,9.1,9.1,0,0,0-1.6-3.585,9.572,9.572,0,0,0-6.444-3.851A7.889,7.889,0,0,1,301,409.612a9.572,9.572,0,0,0-12.786-4.448c-.125.061-.25.124-.372.191a8.62,8.62,0,0,0,1.537,15.831,18.774,18.774,0,0,1,0,36.035,8.556,8.556,0,0,0-6.08,8.23h0a8.616,8.616,0,0,0,4.56,7.614,9.571,9.571,0,0,0,12.956-3.915c.061-.117.122-.234.18-.353a7.891,7.891,0,0,1,6.054-4.393,9.576,9.576,0,0,0,8.172-10.8c-.018-.13-.038-.258-.061-.387a7.9,7.9,0,0,1,2.322-7.107A9.5,9.5,0,0,0,320.411,439.211Zm-24.507,0a10.218,10.218,0,1,0-10.218,10.22,10.218,10.218,0,0,0,10.218-10.22Z" transform="translate(-155.68 -404.206)"/>
        <g id="Group_298" dataName="Group 298" transform="translate(0 8.69)">
            <path id="Path_415" dataName="Path 415" d="M225.133,429.58a7.934,7.934,0,0,0,5.923-2.49,8.588,8.588,0,0,0-.027-11.913,8.233,8.233,0,0,0-11.815,0,8.575,8.575,0,0,0-.016,11.914A7.987,7.987,0,0,0,225.133,429.58Zm-2.861-11.46a3.76,3.76,0,0,1,2.848-1.277,3.8,3.8,0,0,1,2.866,1.282,4.286,4.286,0,0,1,1.239,3.081,4.154,4.154,0,0,1-1.208,3.023,4.04,4.04,0,0,1-5.8.018,4.19,4.19,0,0,1-1.176-3.028A4.324,4.324,0,0,1,222.272,418.12Z" transform="translate(-191.152 -407.774)"/>
            <path id="Path_416" dataName="Path 416" d="M236.691,431.429a7.214,7.214,0,0,0,4.233-1.439v.976h4.166V409.622h-4.166v6.1a7.338,7.338,0,0,0-4.1-1.2,8.044,8.044,0,0,0-5.942,2.482,8.22,8.22,0,0,0-2.431,5.955,8.322,8.322,0,0,0,2.4,5.961A7.862,7.862,0,0,0,236.691,431.429Zm-2.806-11.487a4.169,4.169,0,0,1,5.955-.047,4.373,4.373,0,0,1,1.187,3.16,4.261,4.261,0,0,1-4.169,4.31,3.89,3.89,0,0,1-2.941-1.295,4.417,4.417,0,0,1-.032-6.128Z" transform="translate(-184.109 -409.622)"/>
            <path id="Path_417" dataName="Path 417" d="M243.73,428.454a6.289,6.289,0,0,0,7.189-.385v.979h4.22V412.97h-4.332v9.082a2.864,2.864,0,0,1-5.728,0V412.97h-4.3V421.2a11.5,11.5,0,0,0,.722,4.637A5.734,5.734,0,0,0,243.73,428.454Z" transform="translate(-176.654 -407.598)"/>
            <path id="Path_418" dataName="Path 418" d="M200.815,450.454h4.3v-9.5H212.5v-4.268h-7.393v-3.3H212.5v-4.272H200.815Z" transform="translate(-200.815 -397.84)"/>
            <path id="Path_419" dataName="Path 419" d="M221.936,433.078a7.333,7.333,0,0,0-4.1-1.2,8.053,8.053,0,0,0-5.943,2.482,8.214,8.214,0,0,0-2.431,5.945,8.325,8.325,0,0,0,2.412,5.961,7.864,7.864,0,0,0,5.847,2.513,7.6,7.6,0,0,0,4.219-1.351v.891H226.1v-16.08h-4.167Zm-1.133,10.4a3.965,3.965,0,0,1-2.933,1.234,3.908,3.908,0,0,1-2.944-1.282,4.417,4.417,0,0,1-.018-6.136,3.868,3.868,0,0,1,2.949-1.276,3.948,3.948,0,0,1,2.964,1.236,4.256,4.256,0,0,1,1.218,3.124A4.153,4.153,0,0,1,220.8,443.481Z" transform="translate(-195.589 -396.166)"/>
            <path id="Path_420" dataName="Path 420" d="M233.963,442.635a4.873,4.873,0,0,1-3.986,2.08,4.157,4.157,0,0,1-3.179-1.306,4.352,4.352,0,0,1-1.248-3.145,4.03,4.03,0,0,1,1.245-3.026A4.338,4.338,0,0,1,229.977,436a4.646,4.646,0,0,1,3.941,2.031l.56.754,3.23-2.11-.512-.873a7.579,7.579,0,0,0-3.018-2.9,8.644,8.644,0,0,0-4.127-1.019,8.218,8.218,0,0,0-6.174,2.5,8.4,8.4,0,0,0-2.405,6.013,8.2,8.2,0,0,0,2.4,5.956,8.027,8.027,0,0,0,5.932,2.43,9.345,9.345,0,0,0,4.169-.948,8.021,8.021,0,0,0,3.195-2.818l.566-.86-3.184-2.264Z" transform="translate(-188.327 -396.166)"/>
            <path id="Path_421" dataName="Path 421" d="M248.247,431.878a7.972,7.972,0,0,0-5.921,2.5,8.575,8.575,0,0,0-.016,11.914,8.308,8.308,0,0,0,11.858,0,8.586,8.586,0,0,0-.027-11.911A7.936,7.936,0,0,0,248.247,431.878Zm2.882,11.55a4.04,4.04,0,0,1-5.8.021,4.2,4.2,0,0,1-1.175-3.031,4.314,4.314,0,0,1,1.229-3.1,3.759,3.759,0,0,1,2.85-1.276,3.805,3.805,0,0,1,2.864,1.277,4.291,4.291,0,0,1,1.239,3.081A4.146,4.146,0,0,1,251.129,443.428Z" transform="translate(-177.178 -396.166)"/>
            <path id="Path_422" dataName="Path 422" d="M214.884,419.372a2.027,2.027,0,0,1,2.023-2.027h2.447v-4.172h-2.447a6.206,6.206,0,0,0-6.2,6.2v9.91h4.175Z" transform="translate(-194.834 -407.475)"/>
            <path id="Path_423" dataName="Path 423" d="M251.967,438.571v9.91h4.174v-9.91a2.027,2.027,0,0,1,2.025-2.025h2.447v-4.174h-2.447A6.206,6.206,0,0,0,251.967,438.571Z" transform="translate(-169.889 -395.867)"/>
            <path id="Path_424" dataName="Path 424" d="M267.017,440.8l-3.907-8.7h-4.485L264.791,446l-.846,1.884a2.884,2.884,0,0,1-2.591,1.627h-2.046V453.6h2.046a6.6,6.6,0,0,0,6.282-3.915l6.763-15.42.064-.241.839-1.922h-4.514Z" transform="translate(-165.863 -396.03)"/>
            <path id="Path_425" dataName="Path 425" d="M271.352,427.252a2.026,2.026,0,0,1-2.025-2.025v-2.72l.022,0v-3.679h2.773v-3.933H269.35v-5.265h-4.217v5.265h-2.415v3.933h2.415v4.235l.019,0v2.171a6.207,6.207,0,0,0,6.2,6.2h1.476v-4.174Z" transform="translate(-163.388 -409.619)"/>
            <path id="Path_426" dataName="Path 426" d="M239.514,444.364v-2.72l.023,0v-3.679h2.774v-3.935h-2.774v-5.1H235.32v5.1H232.9v3.935h2.415V442.2l.021,0v2.169a6.206,6.206,0,0,0,6.2,6.2h1.476v-4.172h-1.476A2.028,2.028,0,0,1,239.514,444.364Z" transform="translate(-181.414 -397.949)"/>
            <path id="Path_427" dataName="Path 427" d="M259.881,429.58a9.349,9.349,0,0,0,4.169-.948,8.017,8.017,0,0,0,3.193-2.818l.566-.86-3.184-2.264-.586.746a4.873,4.873,0,0,1-3.986,2.08,4.16,4.16,0,0,1-3.179-1.306,4.354,4.354,0,0,1-1.248-3.145,4.021,4.021,0,0,1,1.247-3.026,4.334,4.334,0,0,1,3.18-1.242A4.648,4.648,0,0,1,264,418.828l.558.753,3.23-2.108-.512-.873a7.573,7.573,0,0,0-3.018-2.9,8.659,8.659,0,0,0-4.125-1.017,8.221,8.221,0,0,0-6.176,2.5,8.4,8.4,0,0,0-2.405,6.011,8.213,8.213,0,0,0,2.4,5.958A8.03,8.03,0,0,0,259.881,429.58Z" transform="translate(-170.142 -407.774)"/>
            <path id="Path_428" dataName="Path 428" d="M208.628,409.75h-7.8v21.566h4.236v-9.339h3.562a6.114,6.114,0,1,0,0-12.227Zm-.1,8.119h-3.466v-3.963h3.466a1.982,1.982,0,0,1,0,3.963Z" transform="translate(-200.807 -409.545)"/>
        </g>
    </symbol>
</svg>
